<?xml version="1.0" encoding="iso-8859-1"?>
<!-- Uploaded to: SVG Repo, www.svgrepo.com, Generator: SVG Repo Mixer Tools -->
<svg height="800px" width="800px" version="1.1" id="Layer_1" xmlns="http://www.w3.org/2000/svg" xmlns:xlink="http://www.w3.org/1999/xlink" 
	 viewBox="0 0 512.002 512.002" xml:space="preserve">
<polygon style="fill:#FEE187;" points="169.095,19.615 16.293,432.497 16.293,492.386 293.854,492.386 254.955,393.467 
	175.953,393.467 254.143,191.682 382.811,492.386 495.707,492.386 495.707,434.652 335.705,19.615 "/>
<g>
	<path style="fill:#FFC61B;" d="M495.707,508.679H382.809c-8.999,0-16.293-7.294-16.293-16.293s7.294-16.293,16.293-16.293h112.898
		c8.999,0,16.293,7.294,16.293,16.293S504.706,508.679,495.707,508.679z"/>
	<path style="fill:#FFC61B;" d="M495.707,220.117c8.999,0,16.293-7.294,16.293-16.293V19.615c0-8.999-7.294-16.293-16.293-16.293
		H16.293C7.294,3.322,0,10.617,0,19.615v412.88v59.892c0,8.999,7.294,16.293,16.293,16.293h271.253h6.307c0.011,0,0.023,0,0.033,0
		c8.999,0,16.293-7.294,16.293-16.293c0-2.478-0.554-4.829-1.545-6.933l-38.518-97.949c-2.45-6.232-8.466-10.33-15.162-10.33
		h-55.214l55.15-142.326l112.942,263.947c2.566,5.996,8.458,9.883,14.98,9.883h112.898c8.999,0,16.293-7.294,16.293-16.293v-57.734
		c0-2.004-0.37-3.99-1.09-5.861L359.447,35.908h119.967v167.916C479.414,212.823,486.708,220.117,495.707,220.117z M145.692,35.908
		L32.586,341.529V35.908H145.692z M479.414,437.684v38.409h-85.853L269.123,185.273c-2.607-6.089-8.604-10.02-15.262-9.88
		c-6.621,0.114-12.516,4.228-14.91,10.403L160.76,387.58c-1.942,5.012-1.287,10.659,1.75,15.094
		c3.037,4.435,8.067,7.086,13.442,7.086h67.901l26.085,66.334H32.586v-40.68L180.439,35.908h144.086L479.414,437.684z"/>
</g>
</svg>